<?xml version="1.0" encoding="UTF-8"?>
<svg version="1.1" xmlns="http://www.w3.org/2000/svg" width="512" height="512">
<path d="M0 0 C0.76166473 -0.00067474 1.52332947 -0.00134949 2.30807495 -0.00204468 C13.68231924 0.01397391 24.55273892 0.48473358 35.625 3.25 C36.30127441 3.41097168 36.97754883 3.57194336 37.67431641 3.73779297 C61.61358803 9.54547923 83.62597942 21.5063601 101.625 38.25 C102.23230957 38.81348145 102.83961914 39.37696289 103.46533203 39.95751953 C130.15345128 65.01125536 149.18644568 99.82758793 150.78613281 136.99365234 C150.83215091 141.20430861 150.87165814 145.41408777 150.875 149.625 C150.87567474 150.38666473 150.87634949 151.14832947 150.87704468 151.93307495 C150.86102609 163.30731924 150.39026642 174.17773892 147.625 185.25 C147.46402832 185.92627441 147.30305664 186.60254883 147.13720703 187.29931641 C141.32952077 211.23858803 129.3686399 233.25097942 112.625 251.25 C112.06151855 251.85730957 111.49803711 252.46461914 110.91748047 253.09033203 C85.86374464 279.77845128 51.04741207 298.81144568 13.88134766 300.41113281 C9.67069147 300.45715091 5.46091216 300.49665774 1.25 300.5 C0.1080014 300.50101212 0.1080014 300.50101212 -1.05706787 300.50204468 C-39.96871264 300.44721645 -75.06703787 286.0885412 -103.375 259.25 C-104.81166016 257.91001953 -104.81166016 257.91001953 -106.27734375 256.54296875 C-131.14007195 232.89158422 -148.05185978 197.99095782 -149.53613281 163.50634766 C-149.58215091 159.29569139 -149.62165814 155.08591223 -149.625 150.875 C-149.62567474 150.11333527 -149.62634949 149.35167053 -149.62704468 148.56692505 C-149.61102609 137.19268076 -149.14026642 126.32226108 -146.375 115.25 C-146.21402832 114.57372559 -146.05305664 113.89745117 -145.88720703 113.20068359 C-140.07952077 89.26141197 -128.1186399 67.24902058 -111.375 49.25 C-110.81151855 48.64269043 -110.24803711 48.03538086 -109.66748047 47.40966797 C-80.58397569 16.42889732 -42.45471765 0.03369286 0 0 Z " fill="#94E670" transform="translate(240.375,120.75)"/>
<path d="M0 0 C19.78218223 0 19.78218223 0 26 1.1875 C27.10915771 1.38931885 27.10915771 1.38931885 28.24072266 1.59521484 C55.50869524 6.8147694 80.65210943 19.07131714 101 38 C101.60730957 38.56348145 102.21461914 39.12696289 102.84033203 39.70751953 C129.52845128 64.76125536 148.56144568 99.57758793 150.16113281 136.74365234 C150.20715091 140.95430861 150.24665814 145.16408777 150.25 149.375 C150.25067474 150.13666473 150.25134949 150.89832947 150.25204468 151.68307495 C150.23602609 163.05731924 149.76526642 173.92773892 147 185 C146.83902832 185.67627441 146.67805664 186.35254883 146.51220703 187.04931641 C140.70452077 210.98858803 128.7436399 233.00097942 112 251 C111.43651855 251.60730957 110.87303711 252.21461914 110.29248047 252.84033203 C85.92894667 278.79322384 51.12518803 298.77248026 14.75605583 300.08071709 C12.50322682 300.09763202 10.25273596 300.08787744 8 300.0625 C6.83791016 300.05573242 6.83791016 300.05573242 5.65234375 300.04882812 C3.76819476 300.03719758 1.88408635 300.01926906 0 300 C-1.98018244 282.38684197 -3.30892648 264.77123897 -4.0625 247.0625 C-4.14596176 245.1149519 -4.14596176 245.1149519 -4.23110962 243.12805939 C-5.40372269 212.17341956 -4.81209961 185.52521187 16.61387444 161.56228065 C21.62785178 156.17824094 26.961875 151.21308758 32.5 146.375 C33.27725811 145.69532795 34.05451622 145.0156559 34.85532761 144.31538773 C44.49494848 135.97119554 54.50388113 128.23318368 65 121 C63.42411996 117.6752055 61.7182851 115.48368383 59.0859375 112.890625 C58.32539063 112.13652344 57.56484375 111.38242188 56.78125 110.60546875 C55.9871875 109.82816406 55.193125 109.05085938 54.375 108.25 C53.17230469 107.06083984 53.17230469 107.06083984 51.9453125 105.84765625 C49.96797154 103.89385507 47.98611091 101.94487897 46 100 C42.59698185 101.47016505 40.39708667 103.36467961 37.7980957 105.99072266 C36.98077469 106.81142242 36.16345367 107.63212219 35.32136536 108.47769165 C34.4483226 109.36419403 33.57527985 110.25069641 32.67578125 111.1640625 C31.77377487 112.07127045 30.87176849 112.97847839 29.94242859 113.91317749 C27.55061082 116.31979113 25.1629446 118.73036406 22.77758789 121.14337158 C19.40629634 124.55272429 16.02972572 127.95682133 12.6504364 131.35824585 C10.85148617 133.16951731 9.05521446 134.98345349 7.26179504 136.80020142 C6.45393051 137.61459686 5.64606598 138.42899231 4.8137207 139.26806641 C4.09964554 139.99039459 3.38557037 140.71272278 2.64985657 141.4569397 C1 143 1 143 0 143 C0 95.81 0 48.62 0 0 Z " fill="#52CC7A" transform="translate(241,121)"/>
<path d="M0 0 C25.57201919 0 47.31027066 0.72818479 65.97631836 18.87255859 C67.33014961 20.23597159 68.66555303 21.61760883 70 23 C70.73734375 23.70640625 71.4746875 24.4128125 72.234375 25.140625 C76.5348607 29.5077849 79.46977243 34.27538412 82.25 39.6875 C82.56743164 40.29811279 82.88486328 40.90872559 83.21191406 41.5378418 C88.80153534 53.04182312 90.59427673 64.49767765 90.45410156 77.17529297 C90.45296977 78.63546721 90.45361339 80.09564372 90.45587158 81.55581665 C90.45700677 85.47242402 90.43369455 89.38852895 90.40557575 93.30502081 C90.38035967 97.41557019 90.37820433 101.52613447 90.37347412 105.63674927 C90.36110313 113.39957266 90.32836225 121.16216738 90.28807616 128.92489064 C90.24317408 137.77144744 90.22132533 146.61801588 90.20129442 155.4646585 C90.15962342 173.64326116 90.08634581 191.82155086 90 210 C70.2 210 50.4 210 30 210 C30 249.6 30 289.2 30 330 C20.1 330 10.2 330 0 330 C0 221.1 0 112.2 0 0 Z " fill="#CFD7E6" transform="translate(422,91)"/>
<path d="M0 0 C9.9 0 19.8 0 30 0 C30.01981934 2.23531494 30.03963867 4.47062988 30.06005859 6.77368164 C30.12707953 14.17377813 30.20471724 21.57373611 30.28752708 28.97367191 C30.33739182 33.45857231 30.38372249 37.94345026 30.421875 42.4284668 C30.45885219 46.7598333 30.50524537 51.09100751 30.55806351 55.42220879 C30.57654156 57.07150321 30.59167363 58.72083875 30.60334396 60.37019539 C30.62031981 62.68718116 30.64938078 65.00373283 30.68115234 67.32055664 C30.69447601 68.6373793 30.70779968 69.95420197 30.7215271 71.31092834 C31.13131002 76.73953035 31.89298158 80.72692881 35.5 84.875 C39.57026289 88.33472345 42.31892657 88.28233741 47.5234375 88.21484375 C50.77054159 87.93315491 52.55182123 87.15142982 55 85 C59.00617908 79.56304267 59.1501059 74.10328307 59.20532227 67.54760742 C59.21522186 66.8153595 59.22512146 66.08311157 59.23532104 65.32867432 C59.26677625 62.92097143 59.29162989 60.51324884 59.31640625 58.10546875 C59.3369896 56.43109133 59.35798643 54.75671895 59.37937927 53.08235168 C59.43445738 48.68478484 59.48392929 44.28717221 59.53222656 39.88952637 C59.58254599 35.39831488 59.63817745 30.90716953 59.69335938 26.41601562 C59.80076643 17.61073159 59.90175869 8.80539108 60 0 C69.9 0 79.8 0 90 0 C90.11341402 10.85808411 90.20495287 21.71576836 90.25906086 32.57431316 C90.28504315 37.6175575 90.32023106 42.66037207 90.37719727 47.70336914 C90.43192561 52.5793302 90.4615058 57.45488051 90.47438622 62.33112526 C90.48355339 64.18210113 90.50145289 66.03305707 90.52865028 67.88385582 C90.7604477 84.32679444 88.19627379 96.46626089 76.34765625 108.70703125 C71.56745094 113.1498103 67.16824876 114.91587562 61 118 C60.67 187.96 60.34 257.92 60 330 C50.1 330 40.2 330 30 330 C29.67 260.04 29.34 190.08 29 118 C25.7 116.35 22.4 114.7 19 113 C9.06612943 105.91751821 3.0868226 96.70231436 0 85 C-0.36876824 82.04608401 -0.38264384 79.14932025 -0.34057617 76.17553711 C-0.34101425 75.34516937 -0.34145233 74.51480164 -0.34190369 73.65927124 C-0.33983429 70.94837908 -0.31659192 68.2381262 -0.29296875 65.52734375 C-0.2873662 63.63448932 -0.28309922 61.7416305 -0.28010559 59.84877014 C-0.26870873 54.89213835 -0.23928644 49.93577468 -0.20599365 44.97924805 C-0.17518102 39.91133245 -0.16157643 34.8433731 -0.14648438 29.77539062 C-0.11441133 19.8501243 -0.06168605 9.9251265 0 0 Z " fill="#E1E6F0" transform="translate(0,91)"/>
<path d="M0 0 C3.42482707 1.61776117 5.65690522 3.42343244 8.328125 6.1328125 C9.12734375 6.93847656 9.9265625 7.74414062 10.75 8.57421875 C11.575 9.41597656 12.4 10.25773438 13.25 11.125 C14.09046875 11.97449219 14.9309375 12.82398438 15.796875 13.69921875 C17.86915683 15.79504923 19.93662393 17.89540713 22 20 C20.64680663 23.01947899 19.13702023 25.11100877 16.79830933 27.44219971 C16.13925598 28.10400238 15.48020264 28.76580505 14.80117798 29.44766235 C14.07901093 30.16263885 13.35684387 30.87761536 12.61279297 31.61425781 C11.85172241 32.37562042 11.09065186 33.13698303 10.30651855 33.92141724 C7.78978644 36.43675604 5.26604416 38.94493661 2.7421875 41.453125 C0.99583128 43.19575111 -0.7500839 44.93881931 -2.49557495 46.68231201 C-7.09103696 51.27013748 -11.69247349 55.85192517 -16.29516602 60.43249512 C-20.99075464 65.10762586 -25.68068622 69.78842168 -30.37109375 74.46875 C-39.57519177 83.65139772 -48.78541868 92.8278727 -58 102 C-61.65329648 100.28543952 -64.00019984 98.24190437 -66.86035156 95.36669922 C-67.32910706 94.89823578 -67.79786255 94.42977234 -68.28082275 93.94711304 C-69.82221432 92.40433305 -71.35640873 90.85460036 -72.890625 89.3046875 C-73.96064255 88.23093808 -75.03110381 87.15763067 -76.10198975 86.08474731 C-78.91431879 83.26479548 -81.72058889 80.43888846 -84.52563477 77.61169434 C-87.39105523 74.7257863 -90.26217168 71.84555743 -93.1328125 68.96484375 C-98.76079512 63.31543511 -104.38238884 57.65972175 -110 52 C-108.38223883 48.57517293 -106.57656756 46.34309478 -103.8671875 43.671875 C-103.06152344 42.87265625 -102.25585938 42.0734375 -101.42578125 41.25 C-100.58402344 40.425 -99.74226562 39.6 -98.875 38.75 C-98.02550781 37.90953125 -97.17601562 37.0690625 -96.30078125 36.203125 C-94.20495077 34.13084317 -92.10459287 32.06337607 -90 30 C-85.80374091 31.63778045 -83.01323215 34.73323182 -79.921875 37.8828125 C-79.35043762 38.45707977 -78.77900024 39.03134705 -78.19024658 39.62301636 C-76.37207055 41.4523581 -74.56098508 43.28854193 -72.75 45.125 C-71.51608671 46.36894774 -70.28171678 47.6124427 -69.046875 48.85546875 C-66.02593257 51.89842367 -63.01132908 54.94753254 -60 58 C-56.02473776 56.3993244 -53.35979696 53.62856444 -50.40527344 50.63232422 C-49.58509735 49.81258621 -49.58509735 49.81258621 -48.74835205 48.97628784 C-46.94724351 47.17378907 -45.15331753 45.36431604 -43.359375 43.5546875 C-42.10999505 42.30157633 -40.86017199 41.04890681 -39.60992432 39.79666138 C-36.32413128 36.50324045 -33.0443893 33.20385709 -29.76586914 29.90319824 C-26.41785747 26.53471006 -23.06416093 23.1718924 -19.7109375 19.80859375 C-13.13504704 13.21126824 -6.56553484 6.60763017 0 0 Z " fill="#E0E6EF" transform="translate(285,220)"/>
<path d="M0 0 C4.19625909 1.63778045 6.98676785 4.73323182 10.078125 7.8828125 C10.64956238 8.45707977 11.22099976 9.03134705 11.80975342 9.62301636 C13.62792945 11.4523581 15.43901492 13.28854193 17.25 15.125 C18.48391329 16.36894774 19.71828322 17.6124427 20.953125 18.85546875 C23.97406743 21.89842367 26.98867092 24.94753254 30 28 C33.84422596 26.22503686 36.19245515 23.9476067 39.125 20.875 C40.71189226 19.21276567 42.32909178 17.57775654 44 16 C44.66 16 45.32 16 46 16 C46.35003857 21.72447684 46.6018103 27.44255719 46.76904297 33.17529297 C46.8388203 35.11780383 46.93389847 37.05959644 47.05615234 38.99951172 C48.09850652 55.98375337 48.09850652 55.98375337 42.82128906 62.49121094 C39.48784423 66.032408 35.87471547 69.06884545 32 72 C28.29955056 70.450168 25.95418913 68.19605329 23.13964844 65.36669922 C22.67089294 64.89823578 22.20213745 64.42977234 21.71917725 63.94711304 C20.17778568 62.40433305 18.64359127 60.85460036 17.109375 59.3046875 C16.03935745 58.23093808 14.96889619 57.15763067 13.89801025 56.08474731 C11.08568121 53.26479548 8.27941111 50.43888846 5.47436523 47.61169434 C2.60894477 44.7257863 -0.26217168 41.84555743 -3.1328125 38.96484375 C-8.76079512 33.31543511 -14.38238884 27.65972175 -20 22 C-18.38223883 18.57517293 -16.57656756 16.34309478 -13.8671875 13.671875 C-12.65869141 12.47304688 -12.65869141 12.47304688 -11.42578125 11.25 C-10.58402344 10.425 -9.74226562 9.6 -8.875 8.75 C-8.02550781 7.90953125 -7.17601562 7.0690625 -6.30078125 6.203125 C-4.20495077 4.13084317 -2.10459287 2.06337607 0 0 Z " fill="#F1F4F6" transform="translate(195,250)"/>
</svg>
